<svg width="196" height="120" viewBox="0 0 196 120" fill="none" xmlns="http://www.w3.org/2000/svg">
<g clip-path="url(#clip0_2_10)">
<path fill-rule="evenodd" clip-rule="evenodd" d="M52.31 2.458C50.86 2.993 48.914 4.849 48.408 6.179C48.144 6.874 48 17.807 48 37.177C48 60.637 47.892 67.188 47.5 67.502C47.225 67.722 44.75 67.993 42 68.104C36.161 68.34 35.74 68.466 35.509 70.037C35.32 71.329 38.393 74.907 40.326 75.646C41.989 76.282 154.597 76.096 156.131 75.455C157.789 74.762 160.8 71.369 160.8 70.193C160.8 68.73 159.901 68.383 155.542 68.16C153.264 68.044 151 67.869 150.512 67.77L149.624 67.591L149.512 37.495C149.385 3.466 149.583 5.487 146.157 3.2L144.659 2.2L99.029 2.128C69.284 2.081 53.021 2.196 52.31 2.458ZM135.855 8.707C141.81 8.882 141.918 8.901 142.355 9.861C143.292 11.917 142.948 66.252 141.993 67.207C140.972 68.228 55.739 68.299 54.72 67.28C54.142 66.702 53.924 10.474 54.494 9.083C54.784 8.377 115.095 8.098 135.855 8.707ZM-127 -100H-107V-80H-127V-100ZM303 -100H323V-80H303V-100Z" fill="#B1B1B1"/>
<path fill-rule="evenodd" clip-rule="evenodd" d="M113.705 17.762C116.164 18.975 119.738 22.493 120.121 24.076C121.185 28.481 122.622 31.429 123.978 31.991C128.525 33.874 129.643 40.494 126.291 45.687C124.617 48.281 117.6 55.616 113.431 59.131C110.706 61.428 110.941 61.469 106.8 57.958C103.42 55.092 103.453 55.089 99.063 58.808C94.714 62.493 94.796 62.488 91.347 59.319C90.438 58.483 88.735 56.99 87.563 56C80.899 50.371 70.4 39.448 70.4 38.145C70.4 37.979 69.915 37.143 69.322 36.287C68.06 34.466 67.554 28.996 68.353 25.82C70.641 16.736 84.313 13.104 91.8 19.591C92.24 19.973 93.164 20.607 93.854 21.001L95.107 21.718L96.777 20.173C101.246 16.038 108.201 15.048 113.705 17.762ZM75.116 38.839C68.8 31.16 70.804 21.709 79.12 19.956C83.677 18.995 87.285 20.232 91.2 24.099C94.644 27.499 94.54 27.49 97.395 24.652C104.658 17.432 112.622 17.866 116.983 25.721C118.614 28.659 118.325 29.514 115.135 31.195C113.669 31.968 112.107 32.931 111.664 33.335C110.878 34.054 110.794 34.031 107.93 32.335C102.524 29.134 96.838 30.223 93.828 35.037C91.237 39.18 92.236 43.066 97.459 49.17C100.714 52.974 100.584 53.795 96.301 56.518C95.209 57.213 92.42 56.434 91.937 55.3C91.862 55.123 90.45 53.829 88.8 52.425C83.542 47.949 78.454 42.898 75.116 38.839ZM99.529 45.974C95.994 41.636 96.095 37.677 99.8 35.406C102.412 33.804 104.486 34.022 107.392 36.204C109.981 38.148 110.802 38.365 111.651 37.332C115.437 32.722 122.33 34.065 123.736 39.685C124.011 40.781 122.369 44.861 121.14 46.139C120.843 46.447 119.51 47.847 118.177 49.25C116.844 50.652 114.675 52.732 113.357 53.87L110.96 55.94L109.673 55.316C107.792 54.405 102.214 49.268 99.529 45.974Z" fill="#FF0000"/>
<path d="M1.26562 97.7461L15.5918 91.3477V96.0586L4.67578 100.488V100.77L15.5918 105.199V109.963L1.26562 103.652V97.7461ZM19.9688 92.4551H23.0273L23.5371 93.8262C24.1816 93.4746 24.8848 93.1582 25.6465 92.877C26.3027 92.6426 27.0586 92.4258 27.9141 92.2266C28.7695 92.0273 29.6836 91.9277 30.6562 91.9277C32.4844 91.9277 33.832 92.4082 34.6992 93.3691C35.5781 94.3184 36.0176 95.8125 36.0176 97.8516V111H31.8516V98.3613C31.8516 97.8809 31.8164 97.4707 31.7461 97.1309C31.6875 96.7793 31.5527 96.498 31.3418 96.2871C31.1309 96.0645 30.8262 95.9004 30.4277 95.7949C30.0293 95.6895 29.4961 95.6367 28.8281 95.6367C28.125 95.6367 27.4863 95.6836 26.9121 95.7773C26.3379 95.8594 25.8457 95.9473 25.4355 96.041C24.9551 96.1582 24.5215 96.2871 24.1348 96.4277V111H19.9688V92.4551ZM41.8359 92.4551H44.8945L45.4043 93.8262C46.0605 93.4746 46.7578 93.1582 47.4961 92.877C48.1289 92.6426 48.8438 92.4258 49.6406 92.2266C50.4492 92.0273 51.2812 91.9277 52.1367 91.9277C53.168 91.9277 54.0176 92.0918 54.6855 92.4199C55.3652 92.748 55.8926 93.2402 56.2676 93.8965C56.5605 93.7324 56.9414 93.5391 57.4102 93.3164C57.8789 93.0938 58.4062 92.8828 58.9922 92.6836C59.5781 92.4727 60.2227 92.2969 60.9258 92.1562C61.6289 92.0039 62.3672 91.9277 63.1406 91.9277C64.8516 91.9277 66.0996 92.4141 66.8848 93.3867C67.6816 94.3477 68.0801 95.8359 68.0801 97.8516V111H63.8965V98.6602C63.8965 98.0977 63.8613 97.6289 63.791 97.2539C63.7207 96.8672 63.5859 96.5566 63.3867 96.3223C63.1875 96.0762 62.9121 95.9004 62.5605 95.7949C62.2207 95.6895 61.7695 95.6367 61.207 95.6367C60.7617 95.6367 60.3281 95.666 59.9062 95.7246C59.4961 95.7715 59.1035 95.8359 58.7285 95.918C58.3652 96 58.0312 96.0879 57.7266 96.1816C57.4336 96.2754 57.1816 96.3574 56.9707 96.4277C57.0059 96.7324 57.0293 97.0547 57.041 97.3945C57.0527 97.7344 57.0586 98.0098 57.0586 98.2207V111H52.8926V98.6602C52.8926 98.0977 52.8516 97.6289 52.7695 97.2539C52.6992 96.8672 52.5645 96.5566 52.3652 96.3223C52.166 96.0762 51.8965 95.9004 51.5566 95.7949C51.2285 95.6895 50.8066 95.6367 50.291 95.6367C49.7051 95.6367 49.1543 95.6836 48.6387 95.7773C48.1348 95.8594 47.6836 95.9473 47.2852 96.041C46.8164 96.1582 46.3887 96.2871 46.002 96.4277V111H41.8359V92.4551ZM82.793 111.439C81.9844 111.439 81.1758 111.363 80.3672 111.211C79.5703 111.059 78.8086 110.795 78.082 110.42C77.3672 110.045 76.6992 109.541 76.0781 108.908C75.457 108.264 74.918 107.455 74.4609 106.482C74.0039 105.498 73.6465 104.332 73.3887 102.984C73.1309 101.637 73.002 100.061 73.002 98.2559C73.002 96.5215 73.1484 95.0039 73.4414 93.7031C73.7344 92.3906 74.127 91.2598 74.6191 90.3105C75.1113 89.3613 75.6855 88.582 76.3418 87.9727C76.998 87.3516 77.6895 86.8594 78.416 86.4961C79.1426 86.1328 79.8809 85.8809 80.6309 85.7402C81.3809 85.5879 82.1016 85.5117 82.793 85.5117C83.9648 85.5117 84.9844 85.5703 85.8516 85.6875C86.7188 85.8047 87.4453 85.9336 88.0312 86.0742C88.7109 86.2383 89.291 86.4258 89.7715 86.6367V89.6602C89.291 89.625 88.7754 89.5898 88.2246 89.5547C87.7559 89.5312 87.2168 89.5078 86.6074 89.4844C86.0098 89.4492 85.3828 89.4316 84.7266 89.4316C84.1289 89.4316 83.5312 89.4551 82.9336 89.502C82.3477 89.5488 81.7793 89.6719 81.2285 89.8711C80.6895 90.0586 80.1855 90.3398 79.7168 90.7148C79.248 91.0898 78.8379 91.6055 78.4863 92.2617C78.1465 92.9062 77.877 93.7148 77.6777 94.6875C77.4902 95.6602 77.3965 96.8379 77.3965 98.2207C77.3965 99.6738 77.4961 100.916 77.6953 101.947C77.8945 102.979 78.1699 103.84 78.5215 104.531C78.873 105.223 79.2832 105.768 79.752 106.166C80.2207 106.564 80.7305 106.869 81.2812 107.08C81.832 107.279 82.4062 107.408 83.0039 107.467C83.6016 107.514 84.1992 107.537 84.7969 107.537C85.5703 107.537 86.2734 107.525 86.9062 107.502C87.5391 107.479 88.0781 107.455 88.5234 107.432C89.0508 107.396 89.5254 107.361 89.9473 107.326V110.35C89.4316 110.561 88.8223 110.742 88.1191 110.895C87.5098 111.035 86.7598 111.158 85.8691 111.264C84.9902 111.381 83.9648 111.439 82.793 111.439ZM93.375 101.719C93.375 100.148 93.5449 98.7598 93.8848 97.5527C94.2246 96.334 94.752 95.3086 95.4668 94.4766C96.1934 93.6445 97.1074 93.0117 98.209 92.5781C99.3105 92.1445 100.629 91.9277 102.164 91.9277C103.699 91.9277 105.018 92.1445 106.119 92.5781C107.232 93.0117 108.146 93.6445 108.861 94.4766C109.576 95.3086 110.104 96.334 110.443 97.5527C110.783 98.7598 110.953 100.148 110.953 101.719C110.953 103.289 110.783 104.689 110.443 105.92C110.104 107.139 109.576 108.164 108.861 108.996C108.146 109.828 107.232 110.461 106.119 110.895C105.018 111.328 103.699 111.545 102.164 111.545C100.629 111.545 99.3105 111.328 98.209 110.895C97.1074 110.461 96.1934 109.828 95.4668 108.996C94.752 108.164 94.2246 107.139 93.8848 105.92C93.5449 104.689 93.375 103.289 93.375 101.719ZM102.164 108.012C103.09 108.012 103.84 107.877 104.414 107.607C104.988 107.326 105.434 106.922 105.75 106.395C106.066 105.855 106.277 105.199 106.383 104.426C106.5 103.641 106.559 102.738 106.559 101.719C106.559 100.711 106.5 99.8203 106.383 99.0469C106.277 98.2617 106.066 97.6055 105.75 97.0781C105.434 96.5391 104.988 96.1348 104.414 95.8652C103.84 95.584 103.09 95.4434 102.164 95.4434C101.25 95.4434 100.506 95.584 99.9316 95.8652C99.3574 96.1348 98.9062 96.5391 98.5781 97.0781C98.2617 97.6055 98.0449 98.2617 97.9277 99.0469C97.8223 99.8203 97.7695 100.711 97.7695 101.719C97.7695 102.738 97.8223 103.641 97.9277 104.426C98.0449 105.199 98.2617 105.855 98.5781 106.395C98.9062 106.922 99.3574 107.326 99.9316 107.607C100.506 107.877 101.25 108.012 102.164 108.012ZM120.832 111.545C119.789 111.545 118.869 111.375 118.072 111.035C117.287 110.695 116.631 110.145 116.104 109.383C115.576 108.609 115.172 107.602 114.891 106.359C114.621 105.117 114.48 103.6 114.469 101.807C114.445 100.025 114.574 98.5078 114.855 97.2539C115.148 96 115.564 94.9805 116.104 94.1953C116.654 93.3984 117.322 92.8242 118.107 92.4727C118.904 92.1094 119.801 91.9277 120.797 91.9277C121.711 91.9277 122.543 91.998 123.293 92.1387C124.043 92.2793 124.693 92.4316 125.244 92.5957C125.889 92.7949 126.457 93.0117 126.949 93.2461V83.6836H131.133V111H127.529L127.283 109.523C126.756 109.898 126.158 110.238 125.49 110.543C124.916 110.801 124.23 111.029 123.434 111.229C122.648 111.439 121.781 111.545 120.832 111.545ZM122.309 107.801C122.918 107.801 123.498 107.76 124.049 107.678C124.611 107.584 125.109 107.479 125.543 107.361C126.047 107.232 126.516 107.08 126.949 106.904V96.3047C126.469 96.1875 125.959 96.0762 125.42 95.9707C124.963 95.8887 124.436 95.8125 123.838 95.7422C123.252 95.6719 122.648 95.6367 122.027 95.6367C121.383 95.6367 120.855 95.748 120.445 95.9707C120.035 96.1816 119.713 96.5391 119.479 97.043C119.244 97.5469 119.08 98.209 118.986 99.0293C118.904 99.8496 118.863 100.863 118.863 102.07C118.863 103.113 118.904 103.998 118.986 104.725C119.068 105.451 119.232 106.043 119.479 106.5C119.725 106.957 120.07 107.291 120.516 107.502C120.973 107.701 121.57 107.801 122.309 107.801ZM135.668 101.525C135.668 99.5918 135.92 98.0039 136.424 96.7617C136.928 95.5195 137.596 94.541 138.428 93.8262C139.26 93.1113 140.209 92.6191 141.275 92.3496C142.342 92.0684 143.438 91.9277 144.562 91.9277C145.98 91.9277 147.152 92.1211 148.078 92.5078C149.016 92.8945 149.76 93.4395 150.311 94.1426C150.861 94.834 151.248 95.666 151.471 96.6387C151.693 97.6113 151.805 98.6836 151.805 99.8555C151.805 100.406 151.781 100.975 151.734 101.561C151.699 102.146 151.646 102.75 151.576 103.371H139.957C139.969 104.203 140.057 104.906 140.221 105.48C140.396 106.043 140.678 106.506 141.064 106.869C141.463 107.221 141.984 107.479 142.629 107.643C143.285 107.795 144.1 107.871 145.072 107.871C145.893 107.871 146.66 107.854 147.375 107.818C148.09 107.771 148.717 107.719 149.256 107.66C149.889 107.602 150.463 107.525 150.979 107.432V110.35C150.381 110.572 149.73 110.771 149.027 110.947C148.43 111.1 147.732 111.234 146.936 111.352C146.139 111.48 145.289 111.545 144.387 111.545C143.004 111.545 141.773 111.369 140.695 111.018C139.617 110.678 138.703 110.115 137.953 109.33C137.215 108.533 136.646 107.496 136.248 106.219C135.861 104.941 135.668 103.377 135.668 101.525ZM147.955 100.242V99.5742C147.955 98.8711 147.908 98.2617 147.814 97.7461C147.732 97.2188 147.557 96.7852 147.287 96.4453C147.018 96.1055 146.637 95.8535 146.145 95.6895C145.652 95.5254 144.996 95.4434 144.176 95.4434C143.297 95.4434 142.576 95.5488 142.014 95.7598C141.463 95.959 141.029 96.2637 140.713 96.6738C140.408 97.0723 140.197 97.5703 140.08 98.168C139.975 98.7656 139.922 99.457 139.922 100.242H147.955ZM173.584 83.6836H177.82L166.518 111H162.281L173.584 83.6836ZM179.789 109.805V105.059L190.688 100.629V100.348L179.789 95.918V91.207L194.115 97.6055V103.512L179.789 109.805Z" fill="black"/>
</g>
<defs>
<clipPath id="clip0_2_10">
<rect width="196" height="120" fill="white"/>
</clipPath>
</defs>
</svg>
