<svg width="106" height="45" viewBox="0 0 106 45" fill="none" xmlns="http://www.w3.org/2000/svg">
<path d="M68.1133 33.8359C67.8008 33.0807 67.5859 32.306 67.4688 31.5117C67.4036 31.056 67.3451 30.6003 67.293 30.1445C67.2539 29.6758 67.2995 29.2135 67.4297 28.7578C67.4948 28.4714 67.5794 28.1979 67.6836 27.9375C67.7878 27.6641 67.8919 27.3906 67.9961 27.1172C68.0742 26.9089 68.1263 26.7005 68.1523 26.4922C68.1914 26.2839 68.2435 26.069 68.3086 25.8477C68.4388 25.3789 68.6341 24.9753 68.8945 24.6367C69.1549 24.2852 69.5 23.9987 69.9297 23.7773C70.3333 23.556 70.75 23.3802 71.1797 23.25C71.6094 23.1198 72.0456 23.0156 72.4883 22.9375C72.8919 22.8594 73.2956 22.8008 73.6992 22.7617C74.1159 22.7227 74.5326 22.7292 74.9492 22.7812C75.1706 22.8073 75.3529 22.8854 75.4961 23.0156C75.6523 23.1458 75.7305 23.3216 75.7305 23.543C75.7305 23.7383 75.6523 23.9271 75.4961 24.1094C75.3529 24.2786 75.1706 24.3503 74.9492 24.3242C74.9102 24.3242 74.8711 24.3242 74.832 24.3242C74.793 24.3112 74.7539 24.3047 74.7148 24.3047C74.3242 24.2786 73.9271 24.2917 73.5234 24.3438C73.1328 24.3828 72.7487 24.4479 72.3711 24.5391C72.1497 24.6042 71.9284 24.6693 71.707 24.7344C71.4857 24.7865 71.2708 24.8581 71.0625 24.9492C70.9193 25.0143 70.776 25.0859 70.6328 25.1641C70.5286 25.2161 70.457 25.2617 70.418 25.3008C70.1706 25.5091 70.0078 25.7044 69.9297 25.8867C69.8516 26.069 69.7865 26.2643 69.7344 26.4727C69.6953 26.668 69.6562 26.8698 69.6172 27.0781C69.5781 27.2865 69.526 27.4818 69.4609 27.6641C69.3568 27.9245 69.2526 28.1914 69.1484 28.4648C69.0443 28.7383 68.9596 29.0182 68.8945 29.3047C68.8555 29.5 68.8424 29.6953 68.8555 29.8906C68.8685 30.0859 68.888 30.2812 68.9141 30.4766C68.9401 30.8151 68.9792 31.1667 69.0312 31.5312C69.0964 31.8958 69.181 32.2474 69.2852 32.5859C69.3893 32.9245 69.526 33.25 69.6953 33.5625C69.8776 33.862 70.099 34.1289 70.3594 34.3633C70.6849 34.6367 71.056 34.8385 71.4727 34.9688C71.8893 35.0859 72.306 35.1706 72.7227 35.2227C73.2435 35.3008 73.7513 35.3073 74.2461 35.2422C74.7409 35.1771 75.2096 34.9948 75.6523 34.6953C75.8607 34.5651 76.056 34.5391 76.2383 34.6172C76.4336 34.6823 76.5768 34.7995 76.668 34.9688C76.7721 35.125 76.8112 35.3138 76.7852 35.5352C76.7721 35.7435 76.6615 35.9128 76.4531 36.043C75.8281 36.4596 75.1576 36.707 74.4414 36.7852C73.7383 36.8503 73.0286 36.8307 72.3125 36.7266C71.8307 36.6615 71.362 36.5638 70.9062 36.4336C70.4505 36.2904 70.0273 36.069 69.6367 35.7695C68.9596 35.2747 68.4518 34.6302 68.1133 33.8359ZM82.5469 27.9961C82.9635 27.944 83.3997 27.931 83.8555 27.957C84.3112 27.9701 84.7474 28.0482 85.1641 28.1914C85.5807 28.3216 85.9583 28.5234 86.2969 28.7969C86.6354 29.0703 86.8958 29.4284 87.0781 29.8711C87.2083 30.1836 87.2734 30.5026 87.2734 30.8281C87.2865 31.1406 87.2409 31.4466 87.1367 31.7461C87.0456 32.0326 86.9023 32.3125 86.707 32.5859C86.5247 32.8464 86.3099 33.0872 86.0625 33.3086C85.5286 33.7904 84.9427 34.2005 84.3047 34.5391C83.6667 34.8776 82.9961 35.138 82.293 35.3203C81.9935 35.3984 81.681 35.4701 81.3555 35.5352C81.043 35.5872 80.724 35.6133 80.3984 35.6133C80.0729 35.6133 79.7539 35.5807 79.4414 35.5156C79.1289 35.4375 78.8359 35.3138 78.5625 35.1445C78.3672 35.0273 78.25 34.8711 78.2109 34.6758C78.1328 34.4544 78.0482 34.2461 77.957 34.0508C77.8659 33.8555 77.7747 33.6536 77.6836 33.4453C77.6055 33.237 77.5404 33.0286 77.4883 32.8203C77.4362 32.612 77.4102 32.3971 77.4102 32.1758C77.4102 31.7331 77.5013 31.3164 77.6836 30.9258C77.8789 30.5221 78.1393 30.1706 78.4648 29.8711C79.0117 29.3503 79.6432 28.9336 80.3594 28.6211C81.0755 28.3086 81.8047 28.1003 82.5469 27.9961ZM84.7539 29.6758C84.4023 29.5456 84.0247 29.4805 83.6211 29.4805C83.1914 29.4674 82.7617 29.513 82.332 29.6172C81.9023 29.7083 81.4922 29.8385 81.1016 30.0078C80.737 30.151 80.3594 30.3529 79.9688 30.6133C79.5911 30.8607 79.3112 31.1667 79.1289 31.5312C79.0247 31.7266 78.9727 31.9284 78.9727 32.1367C78.9857 32.332 79.0182 32.5339 79.0703 32.7422C79.1354 32.9375 79.2135 33.1393 79.3047 33.3477C79.4089 33.543 79.5 33.7383 79.5781 33.9336C79.7865 33.9857 79.9167 34.0117 79.9688 34.0117C79.9948 34.0247 80.0273 34.0312 80.0664 34.0312C80.1055 34.0312 80.138 34.0312 80.1641 34.0312C80.4245 34.0573 80.6589 34.0508 80.8672 34.0117C81.0104 34.0117 81.1927 33.9857 81.4141 33.9336C81.7526 33.8685 82.0781 33.7839 82.3906 33.6797C82.7031 33.5625 82.9896 33.4388 83.25 33.3086C83.5495 33.1654 83.8424 33.0091 84.1289 32.8398C84.4154 32.6706 84.6562 32.4948 84.8516 32.3125C84.9818 32.1953 85.1055 32.0716 85.2227 31.9414C85.2878 31.8763 85.3333 31.8242 85.3594 31.7852C85.4245 31.694 85.4766 31.6289 85.5156 31.5898C85.5547 31.5378 85.5872 31.4792 85.6133 31.4141C85.6654 31.3229 85.6914 31.2513 85.6914 31.1992C85.7044 31.1732 85.7109 31.1406 85.7109 31.1016C85.724 31.0625 85.737 31.0299 85.75 31.0039V30.7891C85.737 30.737 85.7305 30.6979 85.7305 30.6719C85.7305 30.6458 85.724 30.6198 85.7109 30.5938C85.6719 30.5026 85.6328 30.4375 85.5938 30.3984C85.5677 30.3464 85.5352 30.2943 85.4961 30.2422C85.5091 30.2552 85.4896 30.2357 85.4375 30.1836C85.3984 30.1315 85.3724 30.099 85.3594 30.0859L85.2031 29.9297C85.138 29.8906 85.0664 29.8451 84.9883 29.793C84.9102 29.7409 84.832 29.7018 84.7539 29.6758ZM90.5547 29.8711C91.0234 29.5846 91.5247 29.3372 92.0586 29.1289C92.6055 28.9206 93.1589 28.8229 93.7188 28.8359C93.6667 27.7292 93.6211 26.6289 93.582 25.5352C93.556 24.4414 93.5365 23.3411 93.5234 22.2344C93.5234 21.987 93.6016 21.8047 93.7578 21.6875C93.9141 21.5573 94.0898 21.4922 94.2852 21.4922C94.4805 21.4922 94.6562 21.5573 94.8125 21.6875C94.9818 21.8047 95.0664 21.987 95.0664 22.2344C95.0794 23.5234 95.112 24.819 95.1641 26.1211C95.2161 27.4102 95.2682 28.6992 95.3203 29.9883C95.3724 31.2773 95.4115 32.5729 95.4375 33.875C95.4635 35.1641 95.457 36.4531 95.418 37.7422C95.4049 37.9896 95.3138 38.1784 95.1445 38.3086C94.9753 38.4388 94.793 38.5039 94.5977 38.5039C94.4023 38.5039 94.2266 38.4388 94.0703 38.3086C93.9141 38.1914 93.8424 38.0026 93.8555 37.7422C93.8555 37.651 93.8555 37.5599 93.8555 37.4688C93.8555 37.3776 93.862 37.2865 93.875 37.1953C93.7448 37.1823 93.6146 37.1693 93.4844 37.1562C93.3672 37.1562 93.25 37.1562 93.1328 37.1562C92.9766 37.1562 92.8203 37.1562 92.6641 37.1562C92.5078 37.1562 92.3581 37.1497 92.2148 37.1367C91.8763 37.1107 91.5378 37.0781 91.1992 37.0391C90.8607 37 90.5286 36.9219 90.2031 36.8047C89.8776 36.6745 89.5716 36.5182 89.2852 36.3359C88.9987 36.1406 88.7643 35.8867 88.582 35.5742C88.3737 35.2487 88.1979 34.8971 88.0547 34.5195C87.9245 34.1419 87.8724 33.7513 87.8984 33.3477C87.9245 32.944 88.0156 32.5729 88.1719 32.2344C88.3281 31.8958 88.5234 31.5833 88.7578 31.2969C89.0052 31.0104 89.2786 30.75 89.5781 30.5156C89.8906 30.2812 90.2161 30.0664 90.5547 29.8711ZM93.8945 35.6523C93.8945 33.9076 93.8555 32.1562 93.7773 30.3984C93.3477 30.3724 92.918 30.4505 92.4883 30.6328C92.0716 30.8021 91.6875 30.9974 91.3359 31.2188C91.1406 31.3359 90.9258 31.4727 90.6914 31.6289C90.4701 31.7721 90.2617 31.9414 90.0664 32.1367C89.8841 32.319 89.7344 32.5208 89.6172 32.7422C89.5 32.9635 89.4414 33.2044 89.4414 33.4648C89.4544 33.6992 89.5065 33.9531 89.5977 34.2266C89.6888 34.487 89.8125 34.7018 89.9688 34.8711C90.125 35.0404 90.3008 35.1706 90.4961 35.2617C90.6914 35.3398 90.8997 35.4049 91.1211 35.457C91.3815 35.5091 91.6289 35.5417 91.8633 35.5547C92.1107 35.5677 92.3646 35.5807 92.625 35.5938C92.8333 35.5938 93.0417 35.6068 93.25 35.6328C93.4583 35.6458 93.6732 35.6523 93.8945 35.6523ZM98.0156 29.4219C98.263 29.0833 98.556 28.7839 98.8945 28.5234C99.2461 28.263 99.6172 28.0612 100.008 27.918C100.398 27.7617 100.802 27.6836 101.219 27.6836C101.635 27.6706 102.052 27.7487 102.469 27.918C102.872 28.0742 103.237 28.2891 103.562 28.5625C103.888 28.8229 104.142 29.1615 104.324 29.5781C104.467 29.8906 104.552 30.2292 104.578 30.5938C104.604 30.9583 104.507 31.2904 104.285 31.5898C104.09 31.8633 103.849 32.0716 103.562 32.2148C103.289 32.3581 102.99 32.4622 102.664 32.5273C102.352 32.5924 102.026 32.625 101.688 32.625C101.362 32.625 101.049 32.6185 100.75 32.6055C100.411 32.5924 100.073 32.5664 99.7344 32.5273C99.4089 32.4883 99.0768 32.4492 98.7383 32.4102C98.8424 32.9961 99.0508 33.5169 99.3633 33.9727C99.6758 34.4284 100.099 34.7734 100.633 35.0078C100.776 35.0599 100.887 35.099 100.965 35.125C101.004 35.138 101.036 35.151 101.062 35.1641C101.102 35.1641 101.141 35.1641 101.18 35.1641C101.284 35.1771 101.368 35.1901 101.434 35.2031C101.512 35.2031 101.583 35.1966 101.648 35.1836C101.74 35.1706 101.798 35.1641 101.824 35.1641C101.863 35.151 101.902 35.138 101.941 35.125C102.085 35.0859 102.208 35.0404 102.312 34.9883C102.43 34.9362 102.566 34.8516 102.723 34.7344C102.801 34.6693 102.905 34.5716 103.035 34.4414C103.165 34.3112 103.276 34.194 103.367 34.0898C103.497 33.9076 103.654 33.7839 103.836 33.7188C104.031 33.6536 104.227 33.6797 104.422 33.7969C104.591 33.901 104.708 34.0638 104.773 34.2852C104.852 34.4935 104.826 34.6888 104.695 34.8711C104.318 35.3789 103.868 35.8151 103.348 36.1797C102.84 36.5312 102.254 36.7201 101.59 36.7461C101.056 36.7721 100.542 36.681 100.047 36.4727C99.5521 36.2513 99.1159 35.9583 98.7383 35.5938C98.2695 35.138 97.8984 34.6107 97.625 34.0117C97.3516 33.4128 97.2018 32.8008 97.1758 32.1758C97.0586 32.0846 96.9674 31.974 96.9023 31.8438C96.8503 31.7005 96.8307 31.5573 96.8438 31.4141C96.8698 31.2708 96.9219 31.1406 97 31.0234C97.0781 30.8932 97.1953 30.8086 97.3516 30.7695C97.4948 30.2878 97.7161 29.8385 98.0156 29.4219ZM102.703 29.8906C102.56 29.7083 102.339 29.5456 102.039 29.4023C101.792 29.2982 101.499 29.2461 101.16 29.2461C100.835 29.2461 100.555 29.3047 100.32 29.4219C100.021 29.5651 99.7539 29.7669 99.5195 30.0273C99.2852 30.2747 99.0964 30.5547 98.9531 30.8672C99.2656 30.9062 99.5781 30.9453 99.8906 30.9844C100.203 31.0234 100.516 31.0495 100.828 31.0625C100.997 31.0625 101.167 31.0625 101.336 31.0625C101.505 31.0625 101.674 31.056 101.844 31.043C101.896 31.043 101.941 31.043 101.98 31.043C102.033 31.0299 102.085 31.0234 102.137 31.0234C102.254 30.9974 102.339 30.9844 102.391 30.9844C102.456 30.9714 102.521 30.9518 102.586 30.9258C102.638 30.9128 102.703 30.8932 102.781 30.8672C102.846 30.8411 102.885 30.8216 102.898 30.8086C102.911 30.7956 102.931 30.7826 102.957 30.7695L103.016 30.5352C102.99 30.4831 102.97 30.4375 102.957 30.3984C102.957 30.3464 102.944 30.3008 102.918 30.2617C102.905 30.2227 102.872 30.1641 102.82 30.0859C102.781 30.0078 102.742 29.9427 102.703 29.8906Z" fill="#0B132A"/>
<path d="M38.8527 24.5847L38.8745 24.6064C38.8762 24.6077 38.8776 24.6093 38.8785 24.6112L52.4994 38.2324L66.1202 24.6115C66.1217 24.6099 66.1242 24.6068 66.1242 24.6068L66.1467 24.585C68.2295 22.4905 69.5524 19.7599 69.9052 16.8272C70.2579 13.8945 69.6203 10.928 68.0936 8.39927C66.5669 5.87054 64.2388 3.92466 61.4793 2.87117C58.7198 1.81768 56.8233 4.13204 54 4.99998C53.7624 5.07262 52.2376 5.57262 52 5.49998C49.1768 4.63239 46.2795 1.81803 43.5202 2.8717C40.7609 3.92536 38.433 5.87107 36.9064 8.39962C35.3798 10.9282 34.7421 13.8945 35.0947 16.827C35.4474 19.7596 36.7701 22.4902 38.8527 24.5847ZM61.2768 15.6026C61.3431 15.5363 61.3957 15.4575 61.4315 15.371C61.4674 15.2844 61.4859 15.1916 61.4859 15.0978C61.4616 12.6938 60.7822 10.342 59.5208 8.29533C59.4921 8.2489 59.4789 8.19455 59.483 8.14021C59.487 8.08586 59.5082 8.03415 59.5434 7.99247C59.5787 7.95079 59.6262 7.92142 59.6791 7.9084C59.7321 7.89539 59.7878 7.89943 59.8384 7.92001C60.7867 8.31889 61.6482 8.89876 62.3747 9.62705C63.8635 11.1162 64.7005 13.1354 64.7019 15.2412C64.7032 17.3469 63.8688 19.3672 62.3819 20.8581L52.4994 30.7397L42.6174 20.8581C41.1302 19.3674 40.2955 17.3471 40.2969 15.2412C40.2982 13.1354 41.1353 11.1162 42.6243 9.62705C43.3508 8.89876 44.2123 8.31889 45.1604 7.92001C45.2111 7.89943 45.2668 7.89539 45.3198 7.9084C45.3727 7.92142 45.4202 7.95097 45.4555 7.99247C45.4907 8.03415 45.512 8.08586 45.516 8.14038C45.5201 8.19473 45.5069 8.24907 45.4782 8.29551C44.2165 10.342 43.5367 12.6938 43.5121 15.0978C43.5121 15.1916 43.5308 15.2844 43.5668 15.3711C43.6029 15.4578 43.6556 15.5364 43.7221 15.6028L48.3963 20.5607C48.4429 20.5995 48.5015 20.6208 48.5622 20.6208C48.6227 20.6208 48.6814 20.5995 48.7279 20.5607C48.7745 20.522 48.8058 20.468 48.8167 20.4084C48.8276 20.3487 48.8172 20.2874 48.7873 20.2346C46.9719 16.9494 48.533 12.2307 51.1363 9.62705L51.15 9.61333C51.5093 9.25789 51.9944 9.05863 52.4998 9.0588C53.0052 9.05898 53.4901 9.2586 53.8492 9.61422L53.8618 9.62705C56.4661 12.2307 58.0263 16.9489 56.2107 20.2339C56.1808 20.2867 56.1704 20.348 56.1813 20.4077C56.1921 20.4673 56.2236 20.5213 56.2701 20.56C56.3166 20.5988 56.3753 20.6201 56.4358 20.6201C56.4964 20.6201 56.5551 20.5988 56.6016 20.56L61.2768 15.6026Z" fill="#FF0000"/>
<path d="M0.859375 8.55469C0.833333 8.52865 0.807292 8.5026 0.78125 8.47656C0.768229 8.45052 0.748698 8.42448 0.722656 8.39844C0.566406 8.24219 0.488281 8.07943 0.488281 7.91016C0.501302 7.72786 0.553385 7.57161 0.644531 7.44141C0.748698 7.29818 0.878906 7.19401 1.03516 7.12891C1.20443 7.05078 1.3737 7.04427 1.54297 7.10938C1.7513 7.08333 1.94661 7.13542 2.12891 7.26562C2.32422 7.38281 2.42187 7.57812 2.42187 7.85156C3.08594 8.64583 3.71094 9.42708 4.29687 10.1953C4.88281 10.9635 5.41667 11.7773 5.89844 12.6367C6.11979 13.0273 6.32161 13.431 6.50391 13.8477C6.69922 14.2513 6.88151 14.6615 7.05078 15.0781C7.05078 14.5443 7.07031 14.0169 7.10937 13.4961C7.16146 12.9753 7.22005 12.4414 7.28516 11.8945C7.42839 10.7747 7.5651 9.66146 7.69531 8.55469C7.83854 7.4349 7.91667 6.30208 7.92969 5.15625C7.92969 4.90885 8.00781 4.72656 8.16406 4.60938C8.33333 4.47917 8.51562 4.41406 8.71094 4.41406C8.90625 4.41406 9.08203 4.47917 9.23828 4.60938C9.40755 4.72656 9.49219 4.90885 9.49219 5.15625C9.47917 6.32813 9.39453 7.48698 9.23828 8.63281C9.09505 9.76563 8.95182 10.9049 8.80859 12.0508C8.74349 12.6367 8.69141 13.2161 8.65234 13.7891C8.61328 14.349 8.60026 14.9219 8.61328 15.5078C8.6263 16.0677 8.63932 16.6211 8.65234 17.168C8.67839 17.7148 8.67839 18.2682 8.65234 18.8281C8.63932 19.0234 8.57422 19.1862 8.45703 19.3164C8.35286 19.4336 8.22266 19.5117 8.06641 19.5508C7.91016 19.5898 7.75391 19.5833 7.59766 19.5312C7.44141 19.4792 7.3112 19.375 7.20703 19.2188C6.90755 18.763 6.65365 18.2878 6.44531 17.793C6.23698 17.2852 6.04167 16.7839 5.85937 16.2891C5.67708 15.8073 5.48828 15.3451 5.29297 14.9023C5.09766 14.4466 4.8763 13.9974 4.62891 13.5547C4.30339 12.9688 3.95182 12.4089 3.57422 11.875C3.20964 11.3411 2.81901 10.8203 2.40234 10.3125C2.40234 10.8464 2.40234 11.3737 2.40234 11.8945C2.40234 12.4023 2.41536 12.9232 2.44141 13.457C2.46745 14.3945 2.53255 15.3255 2.63672 16.25C2.74089 17.1615 2.85156 18.0794 2.96875 19.0039C2.99479 19.2253 2.91667 19.4141 2.73437 19.5703C2.5651 19.7135 2.38932 19.7852 2.20703 19.7852C1.97266 19.7852 1.79036 19.7135 1.66016 19.5703C1.52995 19.4141 1.45182 19.2253 1.42578 19.0039C1.29557 18.0794 1.17839 17.1615 1.07422 16.25C0.970052 15.3255 0.904948 14.3945 0.878906 13.457C0.852865 12.6367 0.839844 11.8229 0.839844 11.0156C0.852865 10.1953 0.859375 9.375 0.859375 8.55469ZM12.7344 19.6094C12.7344 19.8568 12.6497 20.0391 12.4805 20.1562C12.3242 20.2865 12.1484 20.3516 11.9531 20.3516C11.7578 20.3516 11.5755 20.2865 11.4062 20.1562C11.25 20.0391 11.1719 19.8568 11.1719 19.6094C11.1719 17.526 11.1979 15.4557 11.25 13.3984C11.3021 11.3281 11.4258 9.25781 11.6211 7.1875C11.6471 6.96615 11.7253 6.79036 11.8555 6.66016C11.9987 6.52995 12.1484 6.45833 12.3047 6.44531C12.474 6.41927 12.6367 6.45182 12.793 6.54297C12.9622 6.62109 13.0859 6.76432 13.1641 6.97266C13.4245 7.71484 13.6654 8.46354 13.8867 9.21875C14.1081 9.96094 14.3229 10.7096 14.5312 11.4648C14.7526 12.2201 14.974 12.9753 15.1953 13.7305C15.4297 14.4727 15.6836 15.2083 15.957 15.9375C16.6341 14.2318 17.2461 12.5195 17.793 10.8008C18.3529 9.08203 18.8021 7.31771 19.1406 5.50781C19.1797 5.3125 19.2708 5.16927 19.4141 5.07813C19.5573 4.98698 19.7135 4.94141 19.8828 4.94141C20.0651 4.94141 20.2279 4.98698 20.3711 5.07813C20.5143 5.16927 20.6055 5.3125 20.6445 5.50781C20.7487 6.09375 20.7812 6.67318 20.7422 7.24609C20.7161 7.80599 20.7031 8.37891 20.7031 8.96484C20.7031 9.58984 20.7357 10.2018 20.8008 10.8008C20.8789 11.3997 20.944 12.0052 20.9961 12.6172C21.1003 13.8411 21.1784 15.0651 21.2305 16.2891C21.2826 17.513 21.3281 18.737 21.3672 19.9609C21.3672 20.2214 21.2891 20.4102 21.1328 20.5273C20.9766 20.6576 20.8008 20.7227 20.6055 20.7227C20.4102 20.7227 20.2279 20.6576 20.0586 20.5273C19.8893 20.4102 19.8047 20.2214 19.8047 19.9609C19.7786 18.737 19.7331 17.513 19.668 16.2891C19.6159 15.0651 19.5378 13.8411 19.4336 12.6172C19.4076 12.3958 19.3815 12.168 19.3555 11.9336C19.3424 11.6992 19.3229 11.4714 19.2969 11.25C18.9193 12.4349 18.5091 13.6003 18.0664 14.7461C17.6367 15.8919 17.1875 17.0378 16.7187 18.1836C16.6536 18.3398 16.556 18.4766 16.4258 18.5938C16.3086 18.6979 16.1589 18.75 15.9766 18.75C15.8464 18.75 15.7161 18.7174 15.5859 18.6523C15.4557 18.5742 15.3581 18.4766 15.293 18.3594C14.7721 17.2135 14.3294 16.0482 13.9648 14.8633C13.6003 13.6784 13.2422 12.4805 12.8906 11.2695C12.8255 12.6628 12.7799 14.056 12.7539 15.4492C12.7409 16.8294 12.7344 18.2161 12.7344 19.6094ZM31.1328 19.5117C31.0286 19.694 30.8659 19.8177 30.6445 19.8828C30.4362 19.9479 30.2409 19.9154 30.0586 19.7852C29.707 19.5247 29.3685 19.2578 29.043 18.9844C28.7174 18.6979 28.3659 18.444 27.9883 18.2227C27.6497 18.0143 27.3112 17.8255 26.9727 17.6563C26.6341 17.474 26.3086 17.2656 25.9961 17.0313C25.6185 16.7448 25.2669 16.4323 24.9414 16.0938C24.9284 16.7448 24.9349 17.3958 24.9609 18.0469C24.987 18.6849 25.026 19.3294 25.0781 19.9805C25.1042 20.2018 25.0326 20.3841 24.8633 20.5273C24.694 20.6836 24.5117 20.7617 24.3164 20.7617C24.082 20.7617 23.8997 20.6836 23.7695 20.5273C23.6393 20.3841 23.5612 20.2018 23.5352 19.9805C23.457 19.043 23.4115 18.125 23.3984 17.2266C23.3854 16.3151 23.4049 15.3971 23.457 14.4727C23.3529 14.3294 23.2487 14.1862 23.1445 14.043C23.0404 13.8867 22.9427 13.7305 22.8516 13.5742C22.7734 13.418 22.7409 13.2682 22.7539 13.125C22.7799 12.9818 22.832 12.8581 22.9102 12.7539C23.0013 12.6497 23.1055 12.5651 23.2227 12.5C23.3529 12.4349 23.4896 12.4089 23.6328 12.4219C23.6589 12.1224 23.6914 11.8229 23.7305 11.5234C23.7695 11.2109 23.8086 10.9049 23.8477 10.6055C23.8867 10.3971 23.9193 10.1953 23.9453 10C23.9844 9.79167 24.0169 9.58333 24.043 9.375C24.069 9.27083 24.082 9.17318 24.082 9.08203C24.0951 8.99089 24.1146 8.89323 24.1406 8.78906C24.1406 8.73698 24.1536 8.67188 24.1797 8.59375C24.1927 8.42448 24.1992 8.26172 24.1992 8.10547C24.1992 7.9362 24.2057 7.76693 24.2188 7.59766C24.2318 7.38932 24.2513 7.16797 24.2773 6.93359C24.3164 6.6862 24.3685 6.45182 24.4336 6.23047C24.5117 5.99609 24.6159 5.78125 24.7461 5.58594C24.8763 5.39063 25.0521 5.24089 25.2734 5.13672C25.4818 5.04557 25.6901 4.99349 25.8984 4.98047C26.1198 4.96745 26.3346 4.98047 26.543 5.01953C26.7643 5.05859 26.9792 5.11719 27.1875 5.19531C27.3958 5.26042 27.5977 5.33203 27.793 5.41016C28.2487 5.57943 28.6979 5.77474 29.1406 5.99609C29.5964 6.20443 30 6.47786 30.3516 6.81641C30.6901 7.15495 30.9831 7.55859 31.2305 8.02734C31.4779 8.48307 31.5885 8.95833 31.5625 9.45313C31.5365 9.7526 31.4714 10.0195 31.3672 10.2539C31.276 10.4753 31.1458 10.7031 30.9766 10.9375C30.5599 11.5234 30.1107 12.0833 29.6289 12.6172C29.1471 13.151 28.6328 13.6393 28.0859 14.082C27.8255 14.2904 27.5391 14.4987 27.2266 14.707C26.9271 14.9154 26.6081 15.0911 26.2695 15.2344C26.3867 15.3385 26.5039 15.4427 26.6211 15.5469C26.7383 15.651 26.862 15.7422 26.9922 15.8203C27.3307 16.0417 27.6693 16.25 28.0078 16.4453C28.3594 16.6276 28.6979 16.8294 29.0234 17.0508C29.3359 17.2721 29.6419 17.5065 29.9414 17.7539C30.2409 18.0013 30.5404 18.2357 30.8398 18.457C31.0221 18.5742 31.1393 18.7305 31.1914 18.9258C31.2565 19.1211 31.237 19.3164 31.1328 19.5117ZM25.8594 13.7109C26.1719 13.5417 26.4518 13.3659 26.6992 13.1836C26.9596 12.9883 27.2135 12.7799 27.4609 12.5586C27.7214 12.3242 27.9753 12.0768 28.2227 11.8164C28.4701 11.556 28.7109 11.2956 28.9453 11.0352C29.0365 10.918 29.1211 10.8138 29.1992 10.7227C29.2773 10.6315 29.349 10.5469 29.4141 10.4688C29.4792 10.3776 29.5443 10.2865 29.6094 10.1953C29.6875 10.0911 29.7656 9.97396 29.8438 9.84375C29.8698 9.80469 29.8958 9.76563 29.9219 9.72656C29.9479 9.6875 29.974 9.64844 30 9.60938C30.013 9.24479 29.9349 8.90625 29.7656 8.59375C29.5443 8.21615 29.2643 7.91016 28.9258 7.67578C28.6003 7.44141 28.2357 7.24609 27.832 7.08984C27.5977 6.98568 27.3633 6.89453 27.1289 6.81641C26.8945 6.73828 26.6471 6.66667 26.3867 6.60156C26.3216 6.57552 26.224 6.54948 26.0938 6.52344C26.0156 6.54948 25.9635 6.58854 25.9375 6.64063C25.8854 6.8099 25.8594 6.92708 25.8594 6.99219C25.8464 7.03125 25.8268 7.10286 25.8008 7.20703C25.7878 7.33724 25.7747 7.44141 25.7617 7.51953C25.7617 7.58464 25.7617 7.65625 25.7617 7.73438C25.7227 8.63281 25.625 9.51823 25.4688 10.3906C25.3255 11.263 25.2083 12.1484 25.1172 13.0469C25.0911 13.1901 25.0716 13.3398 25.0586 13.4961C25.0586 13.6393 25.0521 13.7826 25.0391 13.9258C25.1562 13.9388 25.2214 13.9388 25.2344 13.9258C25.3776 13.8997 25.4883 13.8737 25.5664 13.8477C25.6576 13.8086 25.7552 13.763 25.8594 13.7109Z" fill="#0B132A"/>
</svg>
